<svg width="99" height="88" viewBox="0 0 99 88" fill="none" xmlns="http://www.w3.org/2000/svg">
<path d="M93.0284 43.3768C93.0284 53.3536 88.5199 62.9884 80.3805 70.14C72.232 77.2996 61.1278 81.36 49.5016 81.36C37.8753 81.36 26.7714 77.2996 18.6229 70.14C10.4832 62.9884 5.97485 53.3536 5.97485 43.3768C5.97485 33.4004 10.4832 23.7654 18.6229 16.6138C26.7714 9.45444 37.8753 5.39404 49.5016 5.39404C61.1278 5.39404 72.232 9.45444 80.3805 16.6138C88.5199 23.7654 93.0284 33.4004 93.0284 43.3768Z" fill="#259BD7" stroke="white"/>
<path d="M23.0518 44.8508C23.0518 44.8508 21.8732 43.9204 22.0738 43.3816C22.3259 42.7036 24.3094 42.5244 24.3094 42.5244L68.3235 27.3414C68.3235 27.3414 69.9032 26.9064 70.5594 27.219C71.3106 27.5768 71.8167 29.178 71.8167 29.178L63.014 62.85C63.014 62.85 62.5459 63.4636 62.1756 63.5848C61.563 63.7848 60.2194 63.462 60.2194 63.462L48.6221 55.626L41.3563 61.9928L39.4 60.646L35.0684 48.6464L23.0518 44.8508Z" fill="white"/>
<path d="M35.2764 48.6464L62.1042 33.4023L63.0823 33.6472L62.733 34.3207L41.4944 51.1568L40.5162 61.3196L39.3285 60.5848L35.2764 48.6464Z" fill="#B1C8D3"/>
<path d="M41.7044 51.2177C41.7044 51.4629 48.4811 55.8092 48.4811 55.8092L41.5646 61.9316L40.5164 61.0745L41.7044 51.2177Z" fill="#88BDD8"/>
</svg>
