<svg width="99" height="88" viewBox="0 0 99 88" fill="none" xmlns="http://www.w3.org/2000/svg">
<mask id="mask0_131_14" style="mask-type:luminance" maskUnits="userSpaceOnUse" x="0" y="0" width="99" height="87">
<path d="M79.2 0H19.8C8.86476 0 0 8.9543 0 20V66.7536C0 77.7993 8.86476 86.7536 19.8 86.7536H79.2C90.1352 86.7536 99 77.7993 99 66.7536V20C99 8.9543 90.1352 0 79.2 0Z" fill="white"/>
</mask>
<g mask="url(#mask0_131_14)">
<path d="M17.9395 66.3152L18.3743 65.1536L17.5366 64.2448C11.3704 57.5544 8.16748 49.3624 8.16748 40.6656C8.16748 19.526 27.7356 2 52.5935 2C77.4516 2 97.02 19.526 97.02 40.6656C97.02 61.8056 77.4516 79.3316 52.5935 79.3316C46.6409 79.3316 41.005 78.2892 35.6717 76.2124L34.9555 75.9332L34.2403 76.2148L12.8934 84.6192L12.574 84.7448L12.5665 84.7512C12.5076 84.7536 12.4494 84.7536 12.375 84.7536C12.3567 84.7536 12.3055 84.7508 12.2325 84.7372C12.1845 84.728 12.1388 84.7164 12.0984 84.7036L12.0679 84.65L11.8162 84.4296C11.47 84.1264 11.4129 83.8544 11.4778 83.5716L17.9395 66.3152Z" fill="#25D366" stroke="#FFFCFC"/>
<path d="M79.5093 55.5768C78.2718 58.83 73.6311 61.5412 69.6093 62.0832C68.6811 62.3544 67.7532 62.3544 66.5157 62.3544C64.0407 62.3544 60.3282 61.812 53.8311 59.3724C46.4061 56.6612 38.9813 50.968 33.1031 43.648V43.3772C31.2469 40.9372 27.8438 36.3283 27.8438 31.4484C27.8438 25.4841 31.2469 22.5019 32.4844 21.1464C34.0313 19.7909 36.1969 18.9775 38.6719 18.9775C39.2906 18.9775 39.6 18.9775 40.2186 18.9775C42.3843 18.9775 43.9311 19.5198 45.4782 22.2308L46.7157 24.3997C47.6436 26.5685 48.8811 29.0085 49.1907 29.2795C50.1186 30.9062 50.1186 32.2617 49.1907 33.6172C48.8811 34.4305 48.2625 34.9728 47.6436 35.515C47.3343 36.0572 47.025 36.3283 46.7157 36.3283C46.4064 36.5994 46.4061 36.5994 46.0968 36.8705C47.025 38.226 48.8814 40.666 51.3564 42.5636C55.0685 45.546 57.8532 46.3592 59.4 46.9012C60.0186 46.3592 60.6375 45.2748 61.5657 44.4616L61.875 43.9192C63.4218 42.0216 65.8968 41.4792 68.3718 42.2924C69.6093 42.8348 76.4157 45.546 76.4157 45.546L77.0343 45.8168C77.9625 46.3592 79.2 46.6304 79.8186 47.7148C81.0561 50.1548 80.1282 53.6792 79.5093 55.5768Z" fill="white"/>
</g>
</svg>
